<svg width="64" height="64" viewBox="0 0 64 64" fill="none" xmlns="http://www.w3.org/2000/svg">
<path d="M26.5239 40.396H39.3012C39.9218 40.396 40.3964 39.9214 40.3964 39.3008C40.3964 38.6802 39.9218 38.2056 39.3012 38.2056H26.5239C25.9033 38.2056 25.4287 38.6802 25.4287 39.3008C25.4287 39.9214 25.9033 40.396 26.5239 40.396Z" fill="black"/>
<path d="M52.0786 36.7463C52.6993 36.7463 53.1739 36.2717 53.1739 35.651V13.7465C53.1739 11.1179 51.0564 9.00049 48.4279 9.00049H25.063C24.4424 9.00049 23.9678 9.47509 23.9678 10.0957C23.9678 10.7163 24.4424 11.1909 25.063 11.1909H48.4279C49.8516 11.1909 50.9834 12.3226 50.9834 13.7465V35.651C50.9834 36.2717 51.458 36.7463 52.0786 36.7463Z" fill="black"/>
<path d="M11.9211 13.746C11.9211 16.3745 14.0386 18.492 16.6671 18.492C19.2957 18.492 21.4131 16.3745 21.4131 13.746C21.4131 11.1174 19.2957 9 16.6671 9C14.0386 9 11.9211 11.1174 11.9211 13.746ZM16.6671 11.1905C18.0909 11.1905 19.2227 12.3222 19.2227 13.746C19.2227 15.1698 18.091 16.3015 16.6671 16.3015C15.2433 16.3015 14.1116 15.1698 14.1116 13.746C14.1116 12.3222 15.2433 11.1905 16.6671 11.1905Z" fill="black"/>
<path d="M9 24.6981V35.6504C9 36.271 9.4746 36.7456 10.0952 36.7456C10.7159 36.7456 11.1905 36.271 11.1905 35.6504V24.6981C11.1905 23.2744 12.3222 22.1426 13.746 22.1426H34.5557C35.1764 22.1426 35.651 21.668 35.651 21.0474C35.651 20.4267 35.1764 19.9521 34.5557 19.9521H13.746C11.1174 19.9521 9 22.0696 9 24.6981Z" fill="black"/>
<path d="M53.9045 38.2064H45.8362C45.5807 36.7461 44.3029 35.6509 42.7696 35.6509H42.6966H42.6236H41.5283C40.9077 35.6509 40.4331 36.1255 40.4331 36.7461C40.4331 37.3667 40.9077 37.8413 41.5283 37.8413H42.6236H42.6966H42.7696C43.2807 37.8413 43.6823 38.2429 43.6823 38.7541V39.3017C43.6823 39.9223 44.1569 40.3969 44.7776 40.3969H53.9049C54.5255 40.3969 55.0001 39.9223 55.0001 39.3017C55.0001 38.6811 54.5255 38.2065 53.9049 38.2065L53.9045 38.2064Z" fill="black"/>
<path d="M53.9044 52.8099H22.1432V26.5244C22.1432 25.9038 21.6686 25.4292 21.048 25.4292C20.4274 25.4292 19.9528 25.9038 19.9528 26.5244V52.8099H17.7623V38.5724C17.7623 37.9517 17.2877 37.4771 16.6671 37.4771C16.0465 37.4771 15.5719 37.9517 15.5719 38.5724V52.8099H13.3814V37.586C13.3814 36.9654 12.9068 36.4908 12.2862 36.4908C11.6655 36.4908 11.1909 36.9654 11.1909 37.586V52.8099H10.0957C9.47509 52.8099 9.00049 53.2845 9.00049 53.9051C9.00049 54.5258 9.47509 55.0004 10.0957 55.0004H53.9048C54.5255 55.0004 55.0001 54.5258 55.0001 53.9051C55.0001 53.2845 54.5255 52.8099 53.9048 52.8099H53.9044Z" fill="black"/>
</svg>
