<svg width="72" height="64" viewBox="0 0 72 64" fill="none" xmlns="http://www.w3.org/2000/svg">
<path fill-rule="evenodd" clip-rule="evenodd" d="M66.5698 31.08C65.8411 31.0938 65.0608 31.2721 64.2614 31.6562L48 39.479C47.7001 37.6776 46.0259 36.2947 44.0707 36.3509H44.0702L35.2067 36.6135C32.903 36.6135 31.1601 36.0591 29.1046 35.4662C27.0457 34.8728 24.6944 34.2547 21.3838 34.2547C18.4374 34.2547 14.0438 35.3074 10.8875 36.4856V33.3912L10.8869 33.3918C10.8869 32.9377 10.5194 32.5696 10.0653 32.5696H1.15544C0.70134 32.5696 0.333252 32.9377 0.333252 33.3918V57.8449V57.8444C0.333252 58.2985 0.70134 58.6665 1.15544 58.6665H10.0653C10.5194 58.6665 10.8869 58.2985 10.8869 57.8444V55.0647C22.3241 52.8435 28.9757 56.2745 38.7188 56.2664H38.7194C40.3878 56.2664 42.5127 55.3542 45.118 54.0028C47.7233 52.6514 50.734 50.8201 53.783 48.8512C59.8812 44.9141 66.1393 40.4218 69.4265 38.1984H69.4271C69.4271 38.1984 69.4277 38.1984 69.4277 38.1978C70.3605 37.5654 70.888 36.6154 70.9992 35.6521C71.1104 34.6888 70.8393 33.7194 70.2871 32.9161C69.5274 31.8118 68.1738 31.0486 66.5707 31.079L66.5698 31.08ZM66.7722 32.6802C67.7681 32.6882 68.4836 33.1967 68.932 33.8486C69.2737 34.3452 69.4268 34.9374 69.366 35.4644C69.3053 35.9913 69.0644 36.4586 68.506 36.8375L68.5054 36.8381C65.1686 39.0948 58.9408 43.5652 52.8913 47.4714C49.8663 49.4249 46.8866 51.2349 44.361 52.5443C41.8354 53.8544 39.6888 54.6233 38.7187 54.6233L38.7181 54.6227H38.7176C29.4552 54.6307 22.5515 51.209 10.8871 53.3917V50.9979H10.8865C10.89 50.7778 10.8046 50.5656 10.6497 50.4091C10.4955 50.252 10.2845 50.1643 10.0649 50.1643C9.84476 50.1643 9.63377 50.252 9.47954 50.4091C9.32473 50.5656 9.23931 50.7778 9.24274 50.9979V57.0227H6.78539V34.2135H9.24274V40.2383C9.2393 40.4579 9.32473 40.67 9.47954 40.8271C9.63377 40.9836 9.84476 41.0719 10.0649 41.0719C10.2845 41.0719 10.4955 40.9836 10.6497 40.8271C10.8046 40.67 10.89 40.4579 10.8865 40.2383V38.2459C13.8542 37.0654 18.6864 35.8981 21.3829 35.8981C24.4922 35.8981 26.6158 36.4594 28.6484 37.0453C30.6809 37.6313 32.6429 38.2568 35.2167 38.2568V38.2574C35.2247 38.2574 35.2327 38.2574 35.2407 38.2568L44.1174 37.9937H44.118C45.3931 37.9575 46.4033 38.9592 46.4033 40.0572C46.4033 41.1552 45.4062 42.0628 44.0582 42.1212L27.1759 42.8447H27.1765C26.9557 42.8505 26.7476 42.9445 26.5968 43.1056C26.4466 43.2667 26.3675 43.4812 26.3766 43.7013C26.3864 43.9215 26.4839 44.1285 26.6473 44.2764C26.8107 44.4237 27.0268 44.5 27.2464 44.4868L44.1288 43.7633C45.7301 43.6945 47.1789 42.7708 47.7678 41.4085V41.4091C47.797 41.3988 47.8251 41.3867 47.8532 41.3735L64.9748 33.1374C65.6525 32.8117 66.2511 32.6764 66.7728 32.6793L66.7722 32.6802ZM1.97731 34.2138H5.14168V57.023H1.97731V34.2138Z" fill="black"/>
<path fill-rule="evenodd" clip-rule="evenodd" d="M24.3346 2.6665C22.8239 2.6665 21.5808 3.90608 21.5808 5.41168V28.1064C21.5808 29.6172 22.8278 30.8516 24.3346 30.8516H47.0206C48.5268 30.8516 49.7744 29.6166 49.7744 28.1064V5.41168C49.7744 3.90604 48.5314 2.6665 47.0206 2.6665H24.3346ZM24.3346 4.31026H47.0206C47.6306 4.31026 48.13 4.81309 48.13 5.41167V28.1064C48.13 28.7164 47.6346 29.2078 47.0206 29.2078H24.3346C23.7206 29.2078 23.2252 28.7164 23.2252 28.1064V5.41167C23.2252 4.81309 23.7246 4.31026 24.3346 4.31026Z" fill="black"/>
<path fill-rule="evenodd" clip-rule="evenodd" d="M33.5974 8.87256C33.1433 8.87256 32.7752 9.24007 32.7752 9.69417V13.8613H28.6161C28.162 13.8619 27.7939 14.2294 27.7939 14.6835V18.8426C27.7939 19.2967 28.162 19.6648 28.6161 19.6648H32.7752V23.8239C32.7752 24.2774 33.1433 24.6455 33.5974 24.6455H37.7565C38.21 24.6455 38.5781 24.2774 38.5781 23.8239V19.6648H42.7372C43.1913 19.6648 43.5594 19.2967 43.5594 18.8426V14.6835C43.5594 14.2294 43.1913 13.8619 42.7372 13.8613H38.5781V9.69417C38.5781 9.24007 38.21 8.87256 37.7565 8.87256H33.5974ZM34.4196 10.5163H36.9349V14.6835H36.9343C36.9343 15.1376 37.3024 15.5057 37.7565 15.5057H41.9156V18.021H37.7565V18.0204C37.3024 18.021 36.9343 18.3885 36.9343 18.8426V23.0017H34.419V18.8426C34.419 18.3885 34.0509 18.021 33.5974 18.0204H29.4383V15.5051H33.5974V15.5057C34.0509 15.5057 34.419 15.1376 34.419 14.6835V10.5163H34.4196Z" fill="black"/>
</svg>
