<svg width="64" height="64" viewBox="0 0 64 64" fill="none" xmlns="http://www.w3.org/2000/svg">
<path d="M54.7253 15.4178C53.3248 15.0563 52.0843 14.24 51.1976 13.0969C50.3114 11.9537 49.8296 10.5491 49.8279 9.10268C49.8416 8.66624 49.5509 8.27853 49.1282 8.16984L33.2699 4.0278C33.1166 3.99073 32.9567 3.99073 32.8035 4.0278L16.9451 8.16984C16.5224 8.27853 16.2317 8.66624 16.2455 9.10268C16.245 10.5465 15.7657 11.9495 14.8833 13.0923C14.0004 14.235 12.7636 15.053 11.3668 15.4177C10.9442 15.5268 10.6535 15.9145 10.6672 16.3505V32.0127C10.6485 48.2538 31.7122 59.4191 32.6077 59.8957C32.8767 60.0348 33.1966 60.0348 33.4656 59.8957C34.3614 59.4197 55.4253 48.2538 55.4253 32.0127V16.3217C55.4261 15.8957 55.1379 15.5234 54.7256 15.4168L54.7253 15.4178ZM53.5592 32.0128C53.5592 45.8935 36.0314 56.3222 33.0367 58.0013C30.0424 56.3222 12.5141 45.8743 12.5141 32.0128V17.0127C14.0392 16.4804 15.3784 15.5201 16.3713 14.2458C17.3637 12.9719 17.968 11.4385 18.1112 9.82977L33.0367 5.89306L47.9622 9.80184C48.1054 11.4106 48.7097 12.944 49.7021 14.2179C50.6949 15.4918 52.0342 16.4525 53.5592 16.9847V32.0128Z" fill="black"/>
<path d="M33.0364 25.3156C33.8002 25.3181 34.5319 25.6225 35.072 26.1626C35.6122 26.7024 35.9166 27.4341 35.9191 28.1978C35.9191 28.7134 36.3364 29.1307 36.8519 29.1307C37.3671 29.1307 37.7848 28.7134 37.7848 28.1978C37.7848 27.0996 37.405 26.0348 36.7095 25.1848C36.0141 24.3348 35.0459 23.7514 33.9693 23.5336V21.8362C33.9693 21.3206 33.5516 20.9033 33.0365 20.9033C32.5213 20.9033 32.1036 21.3206 32.1036 21.8362V23.5432C30.5507 23.8556 29.2555 24.9221 28.6512 26.3863C28.047 27.8505 28.2123 29.5197 29.0927 30.8369C29.973 32.1537 31.4523 32.9449 33.0364 32.9462C33.801 32.9462 34.534 33.2498 35.0745 33.7903C35.615 34.3309 35.9191 35.0642 35.9191 35.8288C35.9191 36.593 35.615 37.3264 35.0745 37.8669C34.5339 38.4075 33.801 38.7111 33.0364 38.7111C32.2718 38.7111 31.5389 38.4075 30.9983 37.8669C30.4578 37.3264 30.1538 36.593 30.1538 35.8288C30.1538 35.3133 29.7365 34.896 29.2209 34.896C28.7058 34.896 28.2881 35.3133 28.2881 35.8288C28.2881 36.927 28.6679 37.9919 29.3634 38.8419C30.0588 39.6918 31.027 40.2752 32.1036 40.4931V42.2001C32.1036 42.7152 32.5213 43.1329 33.0364 43.1329C33.5516 43.1329 33.9693 42.7152 33.9693 42.2001V40.4835C35.5222 40.1711 36.8174 39.1046 37.4216 37.6404C38.0259 36.1762 37.8606 34.507 36.9802 33.1898C36.0998 31.8729 34.6206 31.0818 33.0365 31.0805C32.0066 31.0805 31.055 30.5312 30.5403 29.6391C30.0251 28.7475 30.0251 27.6485 30.5403 26.7569C31.055 25.8649 32.0066 25.3155 33.0365 25.3155L33.0364 25.3156Z" fill="black"/>
<path d="M33.0363 17.0874C29.078 17.0874 25.2817 18.6599 22.4823 21.4589C19.6833 24.2583 18.1108 28.0546 18.1108 32.0129C18.1108 35.9713 19.6833 39.7676 22.4823 42.5669C25.2817 45.3659 29.078 46.9384 33.0363 46.9384C36.9947 46.9384 40.791 45.3659 43.5904 42.5669C46.3893 39.7676 47.9619 35.9713 47.9619 32.0129C47.9619 28.0546 46.3893 24.2583 43.5904 21.4589C40.791 18.6599 36.9947 17.0874 33.0363 17.0874V17.0874ZM33.0363 45.0727C29.5728 45.0727 26.2508 43.6968 23.8016 41.2476C21.3524 38.7985 19.9765 35.4765 19.9765 32.0129C19.9765 28.5493 21.3524 25.2273 23.8016 22.7782C26.2508 20.329 29.5728 18.9531 33.0363 18.9531C36.4999 18.9531 39.8219 20.329 42.2711 22.7782C44.7202 25.2273 46.0962 28.5493 46.0962 32.0129C46.0962 35.4765 44.7202 38.7985 42.2711 41.2476C39.8219 43.6968 36.4999 45.0727 33.0363 45.0727Z" fill="black"/>
</svg>
