<svg width="64" height="64" viewBox="0 0 64 64" fill="none" xmlns="http://www.w3.org/2000/svg">
<path d="M4.96938 10C4.43621 9.99785 4.00216 10.4284 4 10.9616V45.7295C4.00216 46.2627 4.4362 46.6933 4.96938 46.6911H24.2098L21.6491 52.7484H17.2987C17.266 52.7467 17.2332 52.7467 17.2005 52.7484C16.6669 52.7755 16.2561 53.2303 16.2833 53.7639C16.3104 54.2975 16.7647 54.7083 17.2987 54.6811H46.7073C47.2409 54.6811 47.6737 54.2484 47.6737 53.7148C47.6737 53.1811 47.2409 52.7484 46.7073 52.7484H42.351L39.7902 46.6911H59.0362C59.5672 46.6903 59.9978 46.2605 60 45.7295V10.9616C59.9978 10.4306 59.5672 10.0009 59.0362 10H4.96938ZM5.931 11.931H58.0657V35.7143H5.931V11.931ZM22.3798 16.3775C21.8854 16.4271 21.5091 16.8443 21.5104 17.3413V30.3054C21.5126 30.8356 21.9419 31.2649 22.472 31.267H30.1564L31.2538 32.6136H31.2542C31.4374 32.8381 31.712 32.9683 32.0021 32.9683C32.2917 32.9683 32.5663 32.8381 32.7494 32.6136L33.8412 31.267H41.5238C42.057 31.2692 42.4911 30.8386 42.4932 30.3054V17.3413C42.4928 17.0848 42.3902 16.8391 42.2083 16.6585C42.0264 16.4775 41.7803 16.3766 41.5239 16.3775H22.4721C22.4415 16.3762 22.4109 16.3762 22.3798 16.3775H22.3798ZM23.4414 18.3103H31.0335V29.4306C30.9038 29.3685 30.7624 29.3366 30.6185 29.3362H23.4414L23.4414 18.3103ZM32.9645 18.3103H40.5622V29.3364H33.3852C33.2391 29.3368 33.0955 29.3704 32.9645 29.4346L32.9645 18.3103ZM5.93057 37.6467H58.0653V44.76L25.6665 44.7595H5.93057V37.6467ZM34.9518 40.2376C34.9169 40.2363 34.8816 40.2371 34.8462 40.2393H29.1515C29.1205 40.238 29.0899 40.238 29.0589 40.2393C28.5515 40.2953 28.1753 40.7358 28.1998 41.2457C28.2244 41.7552 28.6412 42.1582 29.1515 42.1647H34.8466H34.8462C35.107 42.188 35.3656 42.1039 35.5634 41.9328C35.7613 41.7612 35.8811 41.5168 35.8953 41.2556C35.9096 40.9944 35.8173 40.7384 35.6393 40.5466C35.4617 40.3548 35.2134 40.2432 34.9518 40.2376L34.9518 40.2376ZM26.3076 46.6904H37.6894L40.254 52.7472L23.7412 52.7477L26.3076 46.6904Z" fill="black"/>
</svg>
