<svg width="64" height="64" viewBox="0 0 64 64" fill="none" xmlns="http://www.w3.org/2000/svg">
<path d="M13.9217 24.7694L13.1901 23.0678L14.1766 21.5018C14.3185 21.2766 14.3204 20.991 14.1815 20.7638C14.0431 20.5377 13.7916 20.4105 13.522 20.4324L11.6787 20.602L10.4943 19.1793C10.3237 18.9746 10.0498 18.883 9.79438 18.9468C9.53605 19.0092 9.33475 19.2129 9.27578 19.4722L8.86684 21.2776L7.14779 21.9644C6.90066 22.0638 6.73154 22.2944 6.71058 22.559C6.69011 22.8247 6.82171 23.0781 7.05031 23.2146L8.64122 24.1607L8.76259 26.008C8.78013 26.2736 8.94683 26.5061 9.19248 26.6075C9.27924 26.6431 9.3699 26.6606 9.46007 26.6606C9.62627 26.6606 9.7915 26.6012 9.92067 26.4871L11.3127 25.2666L13.1079 25.7209C13.3638 25.7857 13.6391 25.7 13.8107 25.4972C13.9837 25.2964 14.0266 25.0142 13.9218 24.7695L13.9217 24.7694ZM11.7611 23.2823L12.0784 24.0203L11.3 23.8234C11.0773 23.7673 10.8409 23.8239 10.6683 23.9759L10.0644 24.5058L10.0118 23.7049C9.99716 23.4749 9.86946 23.2677 9.67156 23.1503L8.98188 22.7394L9.72665 22.4416C9.94062 22.3563 10.0976 22.1711 10.1488 21.9469L10.3262 21.1636L10.8399 21.7811C10.9871 21.9581 11.2055 22.0521 11.4409 22.0297L12.2402 21.9561L11.8128 22.6351C11.689 22.8291 11.6704 23.0713 11.7611 23.2824L11.7611 23.2823Z" fill="black"/>
<path d="M59.2931 20.7643C59.1547 20.5382 58.9061 20.4109 58.6336 20.4329L56.7898 20.6025L55.6054 19.1798C55.4348 18.9751 55.1604 18.8834 54.9055 18.9473C54.6471 19.0102 54.4458 19.2134 54.3869 19.4727L53.9789 21.2781L52.2598 21.9649C52.0127 22.0643 51.8436 22.2939 51.8226 22.5595C51.8022 22.8252 51.9338 23.0786 52.1614 23.2151L53.7523 24.1612L53.8737 26.0085C53.8912 26.2741 54.0579 26.5066 54.3036 26.608C54.3903 26.6436 54.481 26.6611 54.5711 26.6611C54.7373 26.6611 54.9026 26.6017 55.0317 26.4876L56.4238 25.2671L58.2189 25.7214C58.4748 25.7862 58.7492 25.7004 58.9218 25.4977C59.0943 25.2949 59.1377 25.0127 59.0324 24.768L58.3008 23.0664L59.2883 21.5003C59.4311 21.2771 59.4331 20.9915 59.2932 20.7644L59.2931 20.7643ZM56.8722 23.2823L57.1895 24.0203L56.4111 23.8234C56.1888 23.7673 55.9529 23.8238 55.7794 23.9759L55.1755 24.5057L55.1229 23.7049C55.1082 23.4749 54.9805 23.2677 54.7831 23.1502L54.0934 22.7398L54.8382 22.4415C55.0522 22.3562 55.2091 22.171 55.2603 21.9468L55.4373 21.1641L55.951 21.7811C56.0982 21.958 56.318 22.0521 56.552 22.0297L57.3513 21.9561L56.9239 22.6351C56.801 22.829 56.782 23.0713 56.8722 23.2823L56.8722 23.2823Z" fill="black"/>
<path d="M60.4762 7.72784C60.4387 7.46463 60.2549 7.24579 60.001 7.16245L58.24 6.58925L57.7151 4.81454C57.6395 4.55962 57.4255 4.36856 57.1638 4.3242C56.904 4.28033 56.6369 4.38659 56.48 4.60106L55.3901 6.09838L53.5399 6.04964C53.2679 6.05013 53.0271 6.1871 52.9033 6.423C52.7791 6.65842 52.8 6.94356 52.956 7.15899L54.0434 8.65781L53.4249 10.4032C53.3362 10.6532 53.3971 10.9335 53.5828 11.1236C53.7695 11.3137 54.0458 11.3843 54.2988 11.301L56.0598 10.7307L57.5284 11.8576C57.6537 11.9532 57.8038 12.0024 57.9539 12.0024C58.0587 12.0024 58.165 11.9785 58.262 11.9303C58.5008 11.8123 58.6524 11.5696 58.6524 11.3039L58.6543 9.45224L60.1804 8.40431C60.3992 8.25273 60.5138 7.9905 60.4762 7.72778L60.4762 7.72784ZM57.5605 8.5077C57.3709 8.63833 57.2574 8.85278 57.2574 9.08285L57.2569 9.88561L56.6203 9.39722C56.496 9.30218 56.3464 9.25246 56.1948 9.25246C56.1222 9.25246 56.05 9.26367 55.9789 9.28657L55.2151 9.5337L55.4837 8.77675C55.5607 8.55936 55.5261 8.31955 55.3906 8.13337L54.9188 7.48365L55.721 7.50461C55.955 7.5129 56.1695 7.40274 56.3045 7.21753L56.7768 6.56781L57.0044 7.33792C57.0702 7.55872 57.2393 7.73273 57.4577 7.80486L58.2215 8.05296L57.5605 8.5077Z" fill="black"/>
<path d="M43.1612 14.6363C43.7471 15.3012 42.7498 16.1795 42.164 15.5147C41.5781 14.8498 42.5758 13.971 43.1612 14.6363Z" fill="black"/>
<path d="M48.546 8.32754C49.1319 8.99237 48.1346 9.87066 47.5488 9.20586C46.9634 8.54104 47.9606 7.66274 48.546 8.32754Z" fill="black"/>
<path d="M38.5204 2.9833C39.1063 3.64813 38.1085 4.52643 37.5231 3.86162C36.9373 3.1968 37.9345 2.3185 38.5204 2.9833Z" fill="black"/>
<path d="M7.07996 12.2835C7.66534 12.9484 6.66809 13.8271 6.08271 13.1623C5.49685 12.4975 6.49409 11.6187 7.07996 12.2835Z" fill="black"/>
<path d="M26.6039 14.5003C27.1893 15.1651 26.192 16.0439 25.6066 15.3791C25.0208 14.7143 26.018 13.8355 26.6039 14.5003Z" fill="black"/>
<path d="M15.3693 5.57672C14.5041 4.5941 12.9985 4.49711 12.0144 5.36421C11.0317 6.22986 10.9362 7.73498 11.8019 8.7191C12.2707 9.25135 12.9268 9.52333 13.5873 9.52333C14.1454 9.52333 14.7059 9.32837 15.1567 8.93064C16.1399 8.06597 16.2349 6.56087 15.3693 5.57675V5.57672ZM14.2331 7.88261C13.829 8.23891 13.2086 8.20138 12.8508 7.79536C12.4935 7.39032 12.533 6.76935 12.9381 6.41308C13.1238 6.24979 13.3543 6.1684 13.5853 6.1684C13.8573 6.1684 14.1268 6.28002 14.3213 6.50033C14.6776 6.90586 14.6386 7.52634 14.2331 7.88262L14.2331 7.88261Z" fill="black"/>
<path d="M33.5706 23.6902C32.318 22.2684 30.1403 22.132 28.717 23.3827C27.2943 24.6353 27.1568 26.813 28.4105 28.2363C29.0889 29.0069 30.0384 29.4002 30.9922 29.4002C31.7999 29.4002 32.6115 29.118 33.2641 28.5428C34.6859 27.2902 34.8238 25.1135 33.5706 23.6901V23.6902ZM32.3394 27.4939C31.4962 28.2382 30.2011 28.1558 29.4583 27.3116C29.0976 26.9027 28.9188 26.3773 28.9524 25.8338C28.9875 25.2893 29.2307 24.7912 29.6401 24.4315C30.0271 24.0903 30.5087 23.9222 30.9888 23.9222C31.5557 23.9222 32.1187 24.1561 32.5212 24.6133C33.2655 25.4585 33.1836 26.7512 32.3394 27.494V27.4939Z" fill="black"/>
<path d="M36.9117 37.1241C36.9731 36.1508 36.6524 35.2126 36.0075 34.48C34.6779 32.9699 32.3665 32.8238 30.8556 34.1544C30.124 34.7988 29.6873 35.6898 29.6258 36.6622C29.5644 37.6355 29.8851 38.5738 30.53 39.3055C31.1744 40.0371 32.0644 40.4743 33.0378 40.5362C33.1167 40.541 33.1957 40.544 33.2742 40.544C34.1622 40.544 35.0093 40.2247 35.6815 39.632C36.4126 38.9877 36.8503 38.0966 36.9117 37.1243L36.9117 37.1241ZM34.7573 38.5829C34.3059 38.9806 33.7215 39.1824 33.1264 39.1405C32.5264 39.102 31.9761 38.833 31.5779 38.3811C30.7571 37.4497 30.8468 36.0235 31.7792 35.2018C32.2062 34.826 32.738 34.6408 33.2678 34.6408C33.8927 34.6408 34.5146 34.8986 34.9597 35.4031C35.7805 36.3355 35.6893 37.7617 34.7574 38.5829L34.7573 38.5829Z" fill="black"/>
<path d="M7.55941 40.538C7.61107 40.5414 7.66225 40.5428 7.71392 40.5428C8.29199 40.5428 8.84374 40.3352 9.28137 39.9497C9.75806 39.5295 10.0422 38.95 10.0822 38.3158C10.1226 37.6827 9.91403 37.0715 9.49438 36.5948H9.49389C8.62825 35.6121 7.12312 35.5166 6.139 36.3818C5.66232 36.8019 5.37815 37.3814 5.33818 38.0156C5.29773 38.6488 5.50732 39.26 5.92648 39.7367C6.34615 40.2133 6.92616 40.498 7.55932 40.538L7.55941 40.538ZM7.06273 37.4321C7.24844 37.2688 7.47897 37.1875 7.71001 37.1875C7.98199 37.1875 8.25152 37.2991 8.44502 37.5194C8.61854 37.7148 8.70433 37.9673 8.68824 38.2286C8.67167 38.4893 8.55469 38.7282 8.35778 38.9017C8.16233 39.0742 7.90936 39.161 7.6486 39.1439C7.38784 39.1278 7.149 39.0104 6.97549 38.8135C6.80294 38.617 6.71619 38.365 6.73324 38.1043C6.74933 37.843 6.86631 37.6047 7.06273 37.4321V37.4321Z" fill="black"/>
<path d="M36.1134 8.58847C36.1539 7.95533 35.9453 7.34411 35.5251 6.86742C35.105 6.39073 34.5255 6.10657 33.8923 6.0666C33.2552 6.02322 32.647 6.23476 32.1707 6.6549C31.6941 7.07505 31.4099 7.65458 31.3699 8.28774C31.3295 8.92137 31.5391 9.53308 31.9592 10.0093C32.3794 10.486 32.9589 10.7701 33.592 10.8101C33.6432 10.8135 33.6939 10.815 33.7456 10.815C34.3236 10.815 34.8754 10.6069 35.313 10.2208C35.7887 9.80117 36.0729 9.22164 36.1134 8.58849L36.1134 8.58847ZM34.3885 9.17337C34.1935 9.34542 33.9469 9.43413 33.6798 9.41561C33.4185 9.39953 33.1797 9.28206 33.0062 9.08515C32.8337 8.8897 32.7479 8.63722 32.764 8.37597C32.7801 8.11521 32.8975 7.87637 33.0944 7.70285C33.2748 7.54445 33.5019 7.45818 33.7403 7.45818C33.7612 7.45818 33.7827 7.45867 33.8036 7.46013C34.0644 7.47621 34.3032 7.59368 34.4758 7.79059H34.4762C34.6488 7.98604 34.7346 8.23851 34.7185 8.49929C34.7024 8.76103 34.5849 8.99986 34.3885 9.17337V9.17337Z" fill="black"/>
<path d="M23.1645 3.13271C22.8745 2.87927 22.4333 2.90558 22.1779 3.19559C21.9235 3.4856 21.9518 3.9272 22.2408 4.1821C29.4068 10.4897 30.1856 18.1522 30.1925 18.2295C30.2261 18.5927 30.5298 18.8646 30.8876 18.8646C30.9085 18.8646 30.93 18.8641 30.9509 18.8617C31.335 18.8266 31.6182 18.4883 31.5841 18.1043C31.5543 17.7699 30.7676 9.82654 23.1645 3.13224V3.13271Z" fill="black"/>
<path d="M36.5464 18.0716C36.5654 18.444 36.8749 18.7335 37.2438 18.7335C37.2555 18.7335 37.2677 18.7335 37.2794 18.733C37.6645 18.714 37.9613 18.386 37.9423 18.0009C37.9374 17.9112 37.5987 9.01695 45.4747 3.95224C45.7998 3.74313 45.8934 3.31129 45.6843 2.98667C45.4762 2.66254 45.0448 2.56944 44.7188 2.77708C36.1447 8.28974 36.5254 17.6742 36.5463 18.071L36.5464 18.0716Z" fill="black"/>
<path d="M15.7549 12.8447H15.7534C15.3679 12.8447 15.0554 13.1562 15.0544 13.5422C15.054 13.9287 15.3659 14.2416 15.7519 14.2421C20.2444 14.249 22.8359 18.9203 22.8617 18.9676C22.988 19.2001 23.2288 19.3322 23.4768 19.3322C23.5894 19.3322 23.703 19.3058 23.8088 19.2483C24.1475 19.0646 24.2743 18.642 24.091 18.3023C23.9706 18.08 21.0876 12.8525 15.7547 12.8448L15.7549 12.8447Z" fill="black"/>
<path d="M42.9837 18.0927C42.7819 18.4212 42.8838 18.8506 43.2123 19.0529C43.3264 19.1235 43.4536 19.1572 43.5779 19.1572C43.8118 19.1572 44.0409 19.0392 44.174 18.8247C44.2096 18.7682 47.755 13.1328 52.3605 14.2143C52.7348 14.2996 53.1116 14.0696 53.2003 13.6938C53.2885 13.318 53.055 12.9417 52.6797 12.854C47.077 11.5433 43.1479 17.8246 42.9837 18.0926L42.9837 18.0927Z" fill="black"/>
<path d="M44.9115 34.3165C45.0455 34.4779 45.2439 34.568 45.4486 34.568C45.5032 34.568 45.5578 34.5617 45.6114 34.549C45.8697 34.4866 46.071 34.2829 46.13 34.0236L46.7777 31.162L49.5014 30.0731C49.7485 29.9736 49.9176 29.7441 49.9386 29.4784C49.9591 29.2128 49.828 28.9593 49.5998 28.8229L47.079 27.323L46.8855 24.3961C46.8679 24.1305 46.7012 23.8985 46.4551 23.7971C46.2099 23.6957 45.9277 23.742 45.7279 23.9175L43.5228 25.8525L40.6788 25.1322C40.4238 25.0678 40.1485 25.1536 39.9759 25.3559C39.8034 25.5586 39.76 25.8409 39.8653 26.0855L41.0239 28.7805L39.4603 31.2624C39.3184 31.4876 39.3165 31.7732 39.4554 32.0004C39.5943 32.2275 39.8453 32.3562 40.1149 32.3318L43.0364 32.0628L44.9115 34.3165ZM42.4515 28.5675L41.7072 26.8353L43.5346 27.2983C43.7568 27.3548 43.9937 27.2983 44.1662 27.1457L45.5831 25.9028L45.7084 27.7837C45.724 28.0128 45.8507 28.2204 46.0481 28.3379L47.6677 29.3015L45.9174 30.001C45.7035 30.0863 45.5465 30.2715 45.4954 30.4957L45.0791 32.3342L43.8732 30.8865C43.7397 30.7266 43.5428 30.635 43.3361 30.635C43.3152 30.635 43.2937 30.6355 43.2718 30.6379L41.3948 30.8105L42.3998 29.2162C42.5226 29.0207 42.5426 28.7775 42.4515 28.5674L42.4515 28.5675Z" fill="black"/>
<path d="M15.521 35.8934C15.66 36.1206 15.911 36.2507 16.1805 36.2249L18.7272 35.9909L20.3634 37.9557C20.4975 38.117 20.6958 38.2072 20.9005 38.2072C20.9551 38.2072 21.0097 38.2008 21.0638 38.1882C21.3217 38.1253 21.523 37.922 21.5815 37.6627L22.1454 35.1687L24.5195 34.2207C24.7666 34.1212 24.9358 33.8917 24.9567 33.626C24.9772 33.3614 24.8461 33.1069 24.618 32.9705L22.4198 31.6623L22.2516 29.1112C22.2341 28.8456 22.0674 28.6136 21.8217 28.5122C21.5746 28.4108 21.2934 28.4561 21.0935 28.6326L19.1712 30.3186L16.6923 29.6903C16.433 29.6245 16.161 29.7112 15.9885 29.914C15.8159 30.1168 15.7725 30.399 15.8778 30.6437L16.8877 32.9935L15.5244 35.1566C15.384 35.3808 15.3821 35.6674 15.521 35.8936L15.521 35.8934ZM18.3183 32.7784L17.7222 31.3922L19.185 31.7632C19.4101 31.8197 19.6441 31.7632 19.8171 31.6106L20.9513 30.6158L21.0513 32.1208C21.0659 32.3499 21.1936 32.5576 21.391 32.675L22.687 33.4466L21.2862 34.0062C21.0722 34.0914 20.9152 34.2767 20.8641 34.5009L20.5317 35.9719L19.5661 34.8133C19.4325 34.6534 19.2347 34.5618 19.029 34.5618C19.008 34.5618 18.9866 34.5623 18.9646 34.5647L17.4629 34.7031L18.2667 33.4267C18.3895 33.2317 18.409 32.9895 18.3183 32.7784L18.3183 32.7784Z" fill="black"/>
<path d="M12.9449 48.4361C12.7592 48.246 12.4809 48.1763 12.2289 48.2586L10.468 48.8289L8.99982 47.7015C8.78829 47.5392 8.50218 47.5119 8.2653 47.6289C8.02646 47.7468 7.87488 47.9896 7.87488 48.2552L7.87293 50.1064L6.34691 51.1543C6.12806 51.3054 6.01303 51.5672 6.05153 51.8299C6.08906 52.0931 6.27281 52.3119 6.52676 52.3953L8.28774 52.969L8.81317 54.7437C8.88872 54.9981 9.10269 55.1887 9.36443 55.2335C9.4044 55.2404 9.44339 55.2443 9.48336 55.2443C9.70416 55.2443 9.91521 55.1395 10.0488 54.9572L11.1381 53.4603L12.9883 53.5086C13.2462 53.5164 13.5011 53.3711 13.6249 53.1352C13.7492 52.8998 13.7282 52.6147 13.5722 52.3992L12.4848 50.9004L13.1034 49.1555C13.1916 48.9065 13.1311 48.6272 12.945 48.4361L12.9449 48.4361ZM10.8066 52.0536C10.5839 52.0585 10.3582 52.1555 10.2232 52.3407L9.7509 52.9899L9.52328 52.2198C9.45748 51.9995 9.28835 51.8255 9.06999 51.7538L8.30621 51.5053L8.96812 51.051C9.15772 50.9204 9.27129 50.7059 9.27129 50.4758L9.27178 49.6736L9.90834 50.162C10.0916 50.3009 10.329 50.3438 10.5498 50.2726L11.3135 50.0255L11.045 50.7814C10.968 50.9988 11.0026 51.2386 11.1381 51.4248L11.6099 52.0755L10.8066 52.0536Z" fill="black"/>
<path d="M24.9457 44.6532C25.5316 45.3181 24.5343 46.1963 23.9484 45.5315C23.3631 44.8667 24.3603 43.9884 24.9457 44.6532Z" fill="black"/>
<path d="M19.5607 50.9604C20.1461 51.6252 19.1488 52.504 18.5634 51.8387C17.9776 51.1738 18.9748 50.2956 19.5607 50.9604Z" fill="black"/>
<path d="M29.5875 56.3046C30.1734 56.9694 29.1761 57.8477 28.5903 57.1829C28.0049 56.5181 29.0021 55.6398 29.5875 56.3046Z" fill="black"/>
<path d="M60.2828 46.3387C60.8687 47.0035 59.8714 47.8823 59.2855 47.2175C58.6997 46.5527 59.6974 45.6739 60.2828 46.3387Z" fill="black"/>
<path d="M41.5026 44.7851C42.0879 45.4499 41.0907 46.3282 40.5053 45.6634C39.9195 44.9986 40.9167 44.1203 41.5026 44.7851Z" fill="black"/>
<path d="M53.3713 55.3937C53.4225 55.3971 53.4732 55.3985 53.5248 55.3985C54.1029 55.3985 54.6547 55.1909 55.0923 54.8054C55.569 54.3852 55.8531 53.8057 55.8931 53.1725C55.9336 52.5389 55.724 51.9272 55.3048 51.451C54.8847 50.9743 54.3051 50.6901 53.672 50.6502C53.0349 50.6087 52.4266 50.8193 51.9504 51.2394C51.4737 51.6596 51.1896 52.2391 51.1496 52.8723C51.1096 53.5054 51.3187 54.1166 51.7389 54.5933C52.1581 55.0695 52.7381 55.3532 53.3712 55.3937L53.3713 55.3937ZM52.8741 52.2873C53.0545 52.1289 53.2816 52.0427 53.52 52.0427C53.5409 52.0427 53.5624 52.0431 53.5833 52.0446C53.8441 52.0607 54.0829 52.1782 54.2564 52.3751C54.429 52.5705 54.5148 52.823 54.4987 53.0843C54.4826 53.345 54.3651 53.5838 54.1682 53.7574C53.9733 53.9294 53.7266 54.0167 53.4595 53.9996C53.1983 53.9835 52.9594 53.8661 52.7859 53.6691C52.6134 53.4737 52.5276 53.2212 52.5437 52.9604C52.5607 52.6997 52.6777 52.4604 52.8741 52.2873V52.2873Z" fill="black"/>
<path d="M55.8857 34.9164C55.4655 34.4397 54.886 34.1556 54.2528 34.1156C53.6143 34.0737 53.0075 34.2847 52.5313 34.7049C51.5487 35.5705 51.4531 37.0756 52.3183 38.0588H52.3188C52.7389 38.5354 53.3185 38.8196 53.9516 38.8596C54.0028 38.863 54.0535 38.8645 54.1052 38.8645C54.6832 38.8645 55.235 38.6568 55.6726 38.2713C56.1493 37.8511 56.4335 37.2716 56.4734 36.6384C56.5144 36.0043 56.3048 35.3931 55.8856 34.9164L55.8857 34.9164ZM54.7485 37.2223C54.5531 37.3943 54.3084 37.4801 54.0398 37.4645C53.7786 37.4484 53.5398 37.331 53.3662 37.1341C53.0099 36.729 53.0499 36.1091 53.4545 35.7518C53.6509 35.5797 53.9058 35.4954 54.1637 35.5095C54.4244 35.5256 54.6633 35.6431 54.8368 35.84C55.0093 36.0355 55.0951 36.2879 55.079 36.5492C55.0629 36.81 54.9455 37.0493 54.7485 37.2223V37.2223Z" fill="black"/>
<path d="M31.5706 50.2825C31.094 50.7027 30.8098 51.2822 30.7698 51.9153C30.7294 52.549 30.939 53.1607 31.3591 53.6369C31.828 54.1691 32.484 54.4411 33.1435 54.4411C33.7016 54.4411 34.2622 54.2462 34.713 53.8484C35.1897 53.4283 35.4739 52.8487 35.5138 52.2156C35.5543 51.582 35.3447 50.9702 34.9255 50.494C34.0599 49.5129 32.5562 49.4144 31.5706 50.2825H31.5706ZM34.1183 52.1268C34.1023 52.3881 33.9848 52.6269 33.7879 52.7999C33.3833 53.1572 32.7629 53.1173 32.4056 52.7127C32.2331 52.5172 32.1473 52.2648 32.1634 52.0035C32.1794 51.7423 32.2969 51.5034 32.4938 51.3304C32.6742 51.171 32.9013 51.0857 33.1396 51.0857C33.1606 51.0857 33.182 51.0857 33.203 51.0872C33.4638 51.1038 33.7026 51.2207 33.8761 51.4177C34.0487 51.6141 34.1344 51.8656 34.1184 52.1268L34.1183 52.1268Z" fill="black"/>
<path d="M43.9446 58.2001C44.0772 58.3166 44.2424 58.3741 44.4067 58.3741C44.6002 58.3741 44.7932 58.2947 44.9316 58.1372C45.186 57.8472 45.1578 57.4056 44.8687 57.1507C37.7023 50.8431 36.9239 43.1807 36.917 43.1033C36.8815 42.7197 36.5398 42.4365 36.1581 42.4711C35.7741 42.5062 35.4909 42.8445 35.525 43.2286C35.5547 43.5624 36.3404 51.5063 43.9446 58.2006V58.2001Z" fill="black"/>
<path d="M30.561 43.2618C30.5415 42.8777 30.21 42.5779 29.8279 42.6008C29.4428 42.6198 29.146 42.9479 29.165 43.3329C29.1699 43.4226 29.5086 52.3159 21.6326 57.3804C21.3075 57.5895 21.2139 58.0213 21.423 58.3459C21.5556 58.5536 21.7812 58.6666 22.0113 58.6666C22.1414 58.6666 22.2711 58.6301 22.3885 58.5555C30.9621 53.0429 30.5819 43.6583 30.561 43.2616V43.2618Z" fill="black"/>
<path d="M51.3539 48.4885H51.3554C51.7409 48.4885 52.0534 48.1771 52.0544 47.791C52.0549 47.4045 51.7429 47.0916 51.3569 47.0911C46.8644 47.0843 44.2729 42.413 44.2471 42.3657C44.0633 42.0274 43.6363 41.9012 43.301 42.0849C42.9623 42.2687 42.8355 42.6913 43.0188 43.031C43.1377 43.2532 46.0212 48.4808 51.3541 48.4885L51.3539 48.4885Z" fill="black"/>
<path d="M24.1249 43.2389C24.3267 42.9104 24.2248 42.481 23.8963 42.2787C23.5678 42.076 23.1374 42.1773 22.9346 42.5063C22.8995 42.5639 19.3565 48.1998 14.7481 47.1167C14.3723 47.031 13.996 47.2615 13.9083 47.6373C13.8201 48.0131 14.0535 48.3894 14.4288 48.4771C14.9572 48.6009 15.47 48.6575 15.9661 48.6575C20.7335 48.6575 23.9762 43.4817 24.1249 43.2389L24.1249 43.2389Z" fill="black"/>
</svg>
