<svg width="64" height="64" viewBox="0 0 64 64" fill="none" xmlns="http://www.w3.org/2000/svg">
<path d="M32.4665 44.4267C32.3594 44.0505 32.0157 43.7915 31.6255 43.7915H29.8755C29.4852 43.7915 29.1415 44.0505 29.0344 44.4267L27.2844 50.5517C27.1969 50.8571 27.2829 51.186 27.5067 51.4099L30.1317 54.0349C30.3024 54.2056 30.5266 54.2915 30.7505 54.2915C30.9743 54.2915 31.1985 54.2056 31.3692 54.0353L33.9942 51.4103C34.2192 51.1853 34.304 50.8563 34.2165 50.5521L32.4665 44.4267ZM30.7505 52.1794L29.1083 50.5372L30.5353 45.5415H30.965L32.392 50.5368L30.7505 52.1794Z" fill="black"/>
<path d="M34.4453 41.8509C36.4254 40.6126 37.75 38.4189 37.75 35.9165C37.75 32.0567 34.6098 28.9165 30.75 28.9165C26.8902 28.9165 23.75 32.0567 23.75 35.9165C23.75 38.4188 25.0746 40.6126 27.0547 41.8509C23.0859 43.3505 20.25 47.1786 20.25 51.6665V57.7915C20.25 58.2755 20.6422 58.6665 21.125 58.6665H40.375C40.8578 58.6665 41.25 58.2755 41.25 57.7915V51.6665C41.25 47.1786 38.4141 43.3505 34.4453 41.8509V41.8509ZM25.5 35.9165C25.5 33.0212 27.8547 30.6665 30.75 30.6665C33.6453 30.6665 36 33.0212 36 35.9165C36 38.8118 33.6453 41.1665 30.75 41.1665C27.8547 41.1665 25.5 38.8118 25.5 35.9165ZM39.5 56.9165H22V51.6665C22 46.8419 25.9254 42.9165 30.75 42.9165C35.5746 42.9165 39.5 46.8419 39.5 51.6665V56.9165Z" fill="black"/>
<path d="M26.3746 8.7919H28.1246V24.5419C28.1246 25.0247 28.5168 25.4169 28.9996 25.4169H32.4996C32.9824 25.4169 33.3746 25.0247 33.3746 24.5419V8.7919H35.1246C35.4781 8.7919 35.7977 8.57823 35.9332 8.25206C36.0688 7.92472 35.9938 7.54854 35.7434 7.29815L31.3684 2.92315C31.0262 2.58096 30.4731 2.58096 30.1313 2.92315L25.7563 7.29815C25.5059 7.54854 25.4309 7.92471 25.5664 8.25206C25.7016 8.57823 26.0211 8.7919 26.3746 8.7919H26.3746ZM30.7496 4.779L33.0125 7.0419H32.4996C32.0168 7.0419 31.6246 7.43409 31.6246 7.9169V23.6669H29.8746V7.9169C29.8746 7.43409 29.4824 7.0419 28.9996 7.0419H28.4867L30.7496 4.779Z" fill="black"/>
<path d="M53.434 21.3771C53.5696 21.0497 53.4946 20.6735 53.2442 20.4231L48.8692 16.0481C48.527 15.706 47.9739 15.706 47.6321 16.0481L43.2571 20.4231C43.0067 20.6735 42.9317 21.0497 43.0672 21.3771C43.2024 21.7032 43.5219 21.9169 43.8754 21.9169H45.6254V27.1048L42.0188 30.7114C41.5235 31.2075 41.2505 31.8665 41.2505 32.5673V42.0419C41.2505 42.5259 41.6427 42.9169 42.1255 42.9169H45.6255C46.1083 42.9169 46.5005 42.5259 46.5005 42.0419V33.654L50.1064 30.0474C50.6025 29.5521 50.8755 28.8935 50.8755 28.1915V21.9169H52.6255C52.979 21.9169 53.2986 21.7032 53.4341 21.3771H53.434ZM50.0004 20.1669C49.5176 20.1669 49.1254 20.559 49.1254 21.0419V28.1915C49.1254 28.4215 49.0317 28.6473 48.8692 28.8102L45.0071 32.6735C44.843 32.8376 44.7504 33.0591 44.7504 33.2919V41.1669H43.0004V32.5673C43.0004 32.3337 43.0915 32.113 43.2567 31.9485L47.1188 28.0852C47.2836 27.9212 47.3754 27.6989 47.3754 27.4669V21.0419C47.3754 20.559 46.9832 20.1669 46.5004 20.1669H45.9875L48.2504 17.904L50.5133 20.1669H50.0004Z" fill="black"/>
<path d="M20.2499 32.5668C20.2499 31.866 19.9769 31.207 19.4808 30.7102L15.8749 27.1043V21.9164H17.6249C17.9784 21.9164 18.2979 21.7027 18.4335 21.3766C18.569 21.0492 18.494 20.673 18.2436 20.4227L13.8686 16.0477C13.5264 15.7055 12.9733 15.7055 12.6315 16.0477L8.25651 20.4227C8.00612 20.673 7.93112 21.0492 8.06667 21.3766C8.20183 21.7027 8.52136 21.9164 8.87487 21.9164H10.6249V28.191C10.6249 28.8918 10.8979 29.5508 11.394 30.0469L14.9999 33.6535V42.0414C14.9999 42.5254 15.3921 42.9164 15.8749 42.9164H19.3749C19.8577 42.9164 20.2499 42.5254 20.2499 42.0414L20.2499 32.5668ZM18.4999 41.1664H16.7499V33.2914C16.7499 33.0586 16.6581 32.8363 16.4937 32.6727L12.6316 28.8094C12.4687 28.6469 12.3749 28.4219 12.3749 28.191V21.0414C12.3749 20.5586 11.9827 20.1664 11.4999 20.1664H10.987L13.2499 17.9035L15.5128 20.1664H14.9999C14.5171 20.1664 14.1249 20.5586 14.1249 21.0414V27.4664C14.1249 27.6984 14.2167 27.9215 14.3812 28.0852L18.2433 31.9473C18.4089 32.1129 18.4999 32.3332 18.4999 32.5668L18.4999 41.1664Z" fill="black"/>
<path d="M25.4998 25.417C25.9826 25.417 26.3748 25.0248 26.3748 24.542V19.292C26.3748 18.8092 25.9826 18.417 25.4998 18.417C25.0169 18.417 24.6248 18.8092 24.6248 19.292V24.542C24.6248 25.0248 25.0169 25.417 25.4998 25.417Z" fill="black"/>
<path d="M36.875 19.292C36.875 18.8092 36.4828 18.417 36 18.417C35.5172 18.417 35.125 18.8092 35.125 19.292V24.542C35.125 25.0248 35.5172 25.417 36 25.417C36.4828 25.417 36.875 25.0248 36.875 24.542V19.292Z" fill="black"/>
<path d="M25.4998 16.667C25.9826 16.667 26.3748 16.2748 26.3748 15.792V14.042C26.3748 13.5592 25.9826 13.167 25.4998 13.167C25.0169 13.167 24.6248 13.5592 24.6248 14.042V15.792C24.6248 16.2748 25.0169 16.667 25.4998 16.667Z" fill="black"/>
<path d="M35.125 14.042V15.792C35.125 16.2748 35.5172 16.667 36 16.667C36.4828 16.667 36.875 16.2748 36.875 15.792V14.042C36.875 13.5592 36.4828 13.167 36 13.167C35.5172 13.167 35.125 13.5592 35.125 14.042Z" fill="black"/>
<path d="M49.125 37.667C48.6422 37.667 48.25 38.058 48.25 38.542V45.542C48.25 46.026 48.6422 46.417 49.125 46.417C49.6078 46.417 50 46.026 50 45.542V38.542C50 38.058 49.6078 37.667 49.125 37.667Z" fill="black"/>
<path d="M48.5039 48.4211C48.3461 48.5871 48.25 48.8148 48.25 49.0422C48.25 49.2695 48.3461 49.4965 48.5039 49.6633C48.6699 49.8211 48.8977 49.9172 49.125 49.9172C49.3523 49.9172 49.5801 49.8211 49.7461 49.6633C49.9039 49.4973 50 49.2695 50 49.0422C50 48.8148 49.9039 48.5863 49.7461 48.4211C49.4226 48.0973 48.8273 48.0973 48.5039 48.4211H48.5039Z" fill="black"/>
<path d="M52.0037 46.6711C51.8459 46.8371 51.7498 47.0559 51.7498 47.2922C51.7498 47.5195 51.8458 47.7465 52.0037 47.9133C52.1697 48.0711 52.3974 48.1672 52.6248 48.1672C52.8521 48.1672 53.0798 48.0711 53.2458 47.9133C53.4037 47.7473 53.4998 47.5195 53.4998 47.2922C53.4998 47.0648 53.4037 46.8363 53.2458 46.6711C52.9224 46.3473 52.3271 46.3473 52.0036 46.6711H52.0037Z" fill="black"/>
<path d="M8.25391 46.6711C8.0961 46.8371 8 47.0648 8 47.2922C8 47.5195 8.09609 47.7465 8.25391 47.9047C8.41993 48.0711 8.63868 48.1672 8.875 48.1672C9.10234 48.1672 9.33008 48.0711 9.49609 47.9133C9.6539 47.7473 9.75 47.5195 9.75 47.2922C9.75 47.0648 9.65391 46.8363 9.49609 46.6711C9.17265 46.3473 8.57734 46.3473 8.25389 46.6711H8.25391Z" fill="black"/>
<path d="M52.6248 30.667C52.1419 30.667 51.7498 31.0592 51.7498 31.542V38.542C51.7498 39.026 52.1419 39.417 52.6248 39.417C53.1076 39.417 53.4998 39.026 53.4998 38.542V31.542C53.4998 31.0592 53.1076 30.667 52.6248 30.667Z" fill="black"/>
<path d="M52.6248 41.167C52.1419 41.167 51.7498 41.558 51.7498 42.042V43.792C51.7498 44.276 52.1419 44.667 52.6248 44.667C53.1076 44.667 53.4998 44.276 53.4998 43.792V42.042C53.4998 41.558 53.1076 41.167 52.6248 41.167Z" fill="black"/>
<path d="M8.875 30.667C8.39219 30.667 8 31.0592 8 31.542V38.542C8 39.026 8.39219 39.417 8.875 39.417C9.35781 39.417 9.75 39.026 9.75 38.542V31.542C9.75 31.0592 9.35781 30.667 8.875 30.667Z" fill="black"/>
<path d="M8.875 41.167C8.39219 41.167 8 41.558 8 42.042V43.792C8 44.276 8.39219 44.667 8.875 44.667C9.35781 44.667 9.75 44.276 9.75 43.792V42.042C9.75 41.558 9.35781 41.167 8.875 41.167Z" fill="black"/>
<path d="M12.3748 37.667C11.8919 37.667 11.4998 38.058 11.4998 38.542V45.542C11.4998 46.026 11.8919 46.417 12.3748 46.417C12.8576 46.417 13.2498 46.026 13.2498 45.542V38.542C13.2498 38.058 12.8576 37.667 12.3748 37.667Z" fill="black"/>
<path d="M11.7537 48.4211C11.5959 48.5871 11.4998 48.8059 11.4998 49.0422C11.4998 49.2695 11.5958 49.4965 11.7537 49.6633C11.9197 49.8211 12.1474 49.9172 12.3748 49.9172C12.6021 49.9172 12.8298 49.8211 12.9958 49.6633C13.1537 49.4973 13.2498 49.2695 13.2498 49.0422C13.2498 48.8148 13.1537 48.5863 12.9958 48.4211C12.6724 48.0973 12.0771 48.0973 11.7536 48.4211H11.7537Z" fill="black"/>
<path d="M35.3789 27.4211C35.2211 27.5871 35.125 27.8059 35.125 28.0422C35.125 28.2785 35.2211 28.4973 35.3789 28.6633C35.5449 28.8211 35.7727 28.9172 36 28.9172C36.2363 28.9172 36.4551 28.8211 36.6211 28.6633C36.7789 28.4973 36.875 28.2695 36.875 28.0422C36.875 27.8148 36.7789 27.5871 36.6211 27.4211C36.2977 27.0973 35.7023 27.0973 35.3789 27.4211H35.3789Z" fill="black"/>
<path d="M25.4998 28.9167C25.7271 28.9167 25.9549 28.8206 26.1209 28.6628C26.2787 28.4968 26.3748 28.269 26.3748 28.0417C26.3748 27.8144 26.2787 27.5866 26.1209 27.4206C25.797 27.0968 25.2021 27.0968 24.8783 27.4206C24.7209 27.5866 24.6248 27.8144 24.6248 28.0417C24.6248 28.269 24.7208 28.4968 24.8787 28.6628C25.0447 28.8206 25.2724 28.9167 25.4998 28.9167H25.4998Z" fill="black"/>
</svg>
