<svg width="64" height="64" viewBox="0 0 64 64" fill="none" xmlns="http://www.w3.org/2000/svg">
<path d="M59.9255 35.0369C59.6202 30.5022 57.6419 26.2519 54.3877 23.1375C51.1331 20.0222 46.8426 18.2722 42.3738 18.2375C41.1179 13.952 38.4814 10.2207 34.8887 7.6432C31.2959 5.06611 26.9557 3.79242 22.5655 4.02759C18.1749 4.26276 13.9902 5.99279 10.6827 8.93935C7.376 11.8863 5.13956 15.8787 4.33262 20.2748C3.52617 24.6708 4.196 29.2149 6.23507 33.1765C8.27411 37.1383 11.5637 40.2879 15.5747 42.1179C13.7544 43.1179 12.0623 44.3421 10.536 45.7628L7.83007 48.259C7.21356 48.8319 6.88073 49.6547 6.92239 50.5031C6.96363 51.3514 7.37519 52.1366 8.04455 52.6441L11.0396 54.9314H11.04C15.3548 58.2029 20.588 59.9796 25.9695 60H28.6379C34.0195 59.9797 39.2527 58.203 43.5674 54.9314L44.6217 54.1246C48.8731 53.5437 52.7733 51.4145 55.5991 48.1315C58.4251 44.8489 59.9851 40.635 59.9897 36.2711V35.5308C60.0155 35.3635 59.9926 35.1919 59.9243 35.0372L59.9255 35.0369ZM56.1931 43.4368C56.0294 43.1051 55.6903 42.9013 55.3254 42.9148H49.1762L47.0393 40.7411L48.6909 34.8849L51.4902 33.5561L56.6597 37.0586C56.8168 37.1662 57.0025 37.2226 57.1916 37.22C57.3379 37.2192 57.4816 37.1832 57.6115 37.1158L58.0968 36.8692V36.8688C58.0135 39.2687 57.4045 41.62 56.3144 43.7501L56.1931 43.4368ZM45.9945 47.4707L44.175 45.7623C42.5551 44.2623 40.7479 42.9856 38.8006 41.9657H45.6122L47.6558 44.0538L45.9945 47.4707ZM10.4346 11.8873L22.2844 23.9321L19.3264 26.941C16.0715 23.9351 11.9174 22.1296 7.53212 21.8156L6.03 21.7016C6.47196 18.0478 8.00986 14.6213 10.4343 11.8873L10.4346 11.8873ZM21.5198 7.58777C21.8305 12.0454 23.6051 16.2673 26.5584 19.5751L23.6005 22.5937L11.7593 10.5402C14.4469 8.07417 17.8156 6.50977 21.4077 6.06015L21.5198 7.58777ZM36.7755 11.878C38.4317 13.7436 39.6843 15.9424 40.4517 18.3321C37.3979 18.6596 34.4824 19.799 31.9981 21.635C31.0042 21.0384 30.067 20.3491 29.1988 19.5753L36.7755 11.878ZM46.5076 20.7431L46.7501 21.4741L42.2621 24.6723L37.774 21.4736L38.0165 20.7427V20.7431C40.7908 19.933 43.7333 19.933 46.5076 20.7431L46.5076 20.7431ZM46.6755 34.7144V34.7712L46.7313 34.8661L45.2946 40.0673H39.2295L37.7457 34.7805L42.2621 31.7149L46.6755 34.7144ZM36.5514 33.3094L32.7166 31.7433L30.9995 27.3772C30.9191 27.1599 30.7583 26.9827 30.5517 26.8836L29.7027 26.4472C31.3019 24.3349 33.3884 22.6561 35.777 21.5592C35.6545 21.9541 35.7978 22.3846 36.1315 22.6223L41.3288 26.3239V30.0637L36.5514 33.3094ZM28.6481 28.0324L29.3945 28.4121L30.9062 32.2086L27.1739 36.0052L26.3995 35.7013C26.4974 32.9925 27.2709 30.3531 28.6481 28.0324L28.6481 28.0324ZM30.4118 22.8977V22.8973C29.3816 23.8376 28.4614 24.8947 27.6683 26.0486C27.5712 26.1325 27.4916 26.2358 27.435 26.3524C27.4321 26.3871 27.4321 26.4219 27.435 26.4566L24.9156 23.9321L27.8828 20.914H27.8832C28.6701 21.6453 29.516 22.3088 30.4117 22.8974L30.4118 22.8977ZM23.6002 25.2701L26.4462 28.1651C25.3823 30.2938 24.7478 32.6176 24.58 34.9989C23.7165 32.5124 22.3714 30.2274 20.6235 28.2791L23.6002 25.2701ZM26.6702 39.1178C26.5957 38.6907 26.5303 38.2636 26.4836 37.8272L26.9127 38.0454C27.0397 38.1229 27.1843 38.1657 27.3326 38.1687C27.5804 38.17 27.8191 38.0712 27.9949 37.8933L32.2217 33.584L35.8887 35.0835L37.5967 41.2724C37.6087 41.3237 37.6308 41.3724 37.6621 41.4148C34.42 39.9059 30.8975 39.1224 27.3327 39.1178L26.6702 39.1178ZM55.0639 26.779C56.7514 29.1192 57.7837 31.881 58.0498 34.7708L57.2567 35.1789L52.6754 32.0658L54.1587 26.7791L55.0639 26.779ZM53.4589 24.8807C53.0278 24.8646 52.642 25.1511 52.5258 25.5735L50.7717 31.7903L47.8604 33.2047L43.1949 30.0632V26.3234L48.3923 22.6217C48.7434 22.3972 48.9067 21.9641 48.7934 21.5586C50.5322 22.3718 52.1126 23.4971 53.4589 24.8806L53.4589 24.8807ZM35.4412 10.5395L27.8831 18.2369C25.243 15.253 23.6567 11.4586 23.3759 7.4549L23.2735 5.89809C27.7619 5.8142 32.1133 7.47388 35.441 10.5395H35.4412ZM5.87123 23.5997L7.37335 23.7039C11.3186 23.9806 15.0597 25.5911 18.0014 28.2789L10.4342 35.9766C7.42038 32.5915 5.7888 28.1653 5.87123 23.5999V23.5997ZM11.7122 37.3334L19.3264 29.6263C21.7333 32.3495 23.2609 35.7584 23.7024 39.3931C21.7095 39.6884 19.76 40.2338 17.8988 41.0159C15.6232 40.2227 13.5283 38.9698 11.7404 37.3334H11.7122ZM42.5042 53.4123V53.4119C38.5074 56.4478 33.6549 58.092 28.6667 58.1009H25.9983C21.01 58.092 16.1575 56.448 12.1608 53.4119L9.16532 51.1246C8.94079 50.9535 8.80374 50.6886 8.79208 50.4035C8.77958 50.1238 8.88872 49.8531 9.09075 49.6628L11.7501 47.176V47.1764C13.6504 45.4213 15.8228 43.9976 18.1793 42.962C18.3209 42.9366 18.455 42.8781 18.5709 42.7912C22.6185 41.09 27.0591 40.5985 31.3718 41.3756C35.6841 42.1523 39.6888 44.1645 42.9155 47.1764L45.5748 49.6632V49.6628C45.7769 49.853 45.886 50.1238 45.8735 50.4035C45.8619 50.6886 45.7248 50.9534 45.5003 51.1246L42.5042 53.4123ZM47.4962 51.5141V51.5136C47.6287 51.2132 47.7107 50.8925 47.739 50.5645C47.7599 50.0149 47.6237 49.4713 47.3471 48.9984L49.3719 44.8128H54.7463L55.1662 45.6577C53.2567 48.3467 50.5783 50.3716 47.4961 51.4568L47.4962 51.5141Z" fill="black"/>
<path d="M35.7299 48.6102H34.7968V47.6611C34.7968 47.1369 34.379 46.7119 33.8638 46.7119C33.3485 46.7119 32.9307 47.1369 32.9307 47.6611V48.6102H31.0645V47.6611C31.0645 47.1369 30.6467 46.7119 30.1314 46.7119C29.6161 46.7119 29.1983 47.1369 29.1983 47.6611V48.6102H27.3321V47.6611C27.3321 47.1369 26.9143 46.7119 26.399 46.7119C25.8837 46.7119 25.4659 47.1369 25.4659 47.6611V48.6102H23.5997V47.6611C23.5997 47.1369 23.1819 46.7119 22.6667 46.7119C22.1514 46.7119 21.7336 47.1369 21.7336 47.6611V48.6102H19.8674V47.6611C19.8674 47.1369 19.4496 46.7119 18.9343 46.7119C18.419 46.7119 18.0012 47.1369 18.0012 47.6611V48.6102H17.0681C16.5528 48.6102 16.135 49.0352 16.135 49.5593C16.135 50.0835 16.5528 50.5085 17.0681 50.5085H18.0012V51.4576C18.0012 51.9817 18.419 52.4067 18.9343 52.4067C19.4496 52.4067 19.8674 51.9817 19.8674 51.4576V50.5085H21.7336V51.4576C21.7336 51.9817 22.1514 52.4067 22.6667 52.4067C23.1819 52.4067 23.5997 51.9817 23.5997 51.4576V50.5085H25.4659V51.4576C25.4659 51.9817 25.8837 52.4067 26.399 52.4067C26.9143 52.4067 27.3321 51.9817 27.3321 51.4576V50.5085H29.1983V51.4576C29.1983 51.9817 29.6161 52.4067 30.1314 52.4067C30.6467 52.4067 31.0645 51.9817 31.0645 51.4576V50.5085H32.9307V51.4576C32.9307 51.9817 33.3485 52.4067 33.8638 52.4067C34.379 52.4067 34.7968 51.9817 34.7968 51.4576V50.5085H35.7299C36.2452 50.5085 36.663 50.0835 36.663 49.5593C36.663 49.0352 36.2452 48.6102 35.7299 48.6102Z" fill="black"/>
</svg>
