<svg width="64" height="64" viewBox="0 0 64 64" fill="none" xmlns="http://www.w3.org/2000/svg">
<path d="M47.6022 13.165H19.0638C18.2065 13.165 17.3843 13.5054 16.7778 14.1118C16.1714 14.7183 15.8311 15.5405 15.8311 16.3978V20.4603C15.8311 20.8779 16.1697 21.217 16.5878 21.217C17.0055 21.217 17.3446 20.8779 17.3446 20.4603V16.3978C17.3446 15.9417 17.5257 15.5046 17.8479 15.182C18.1706 14.8598 18.6077 14.6786 19.0637 14.6786H47.6021C48.0582 14.6786 48.4953 14.8598 48.8179 15.182C49.1401 15.5046 49.3213 15.9417 49.3213 16.3978V44.9362C49.3213 45.3923 49.1401 45.8293 48.8179 46.152C48.4953 46.4742 48.0582 46.6553 47.6021 46.6553H19.0637C18.6076 46.6553 18.1706 46.4742 17.8479 46.152C17.5257 45.8293 17.3446 45.3923 17.3446 44.9362V26.8832C17.3446 26.4651 17.0055 26.1264 16.5878 26.1264C16.1697 26.1264 15.8311 26.4651 15.8311 26.8832V44.9362C15.8311 45.7934 16.1714 46.6156 16.7778 47.2221C17.3843 47.8286 18.2065 48.1689 19.0638 48.1689H47.6022C48.4595 48.1689 49.2817 47.8285 49.8881 47.2221C50.4946 46.6157 50.8349 45.7935 50.8349 44.9362V16.3978C50.8349 15.5405 50.4946 14.7183 49.8881 14.1118C49.2817 13.5053 48.4595 13.165 47.6022 13.165V13.165Z" fill="black"/>
<path d="M20.8503 27.3975C20.4968 27.4693 20.2434 27.7814 20.2451 28.142V33.191C20.2434 33.5516 20.4968 33.8637 20.8503 33.9355L22.6666 34.2682V34.2687C22.8368 34.7497 23.0391 35.2188 23.2722 35.6732L22.1945 37.1808C21.9863 37.481 22.0247 37.8873 22.2853 38.1432L25.8571 41.715C26.1142 41.973 26.5188 42.0114 26.8195 41.8058L28.3208 40.7644H28.3212C28.7777 40.9962 29.249 41.1985 29.7317 41.37L30.0644 43.1863H30.0649C30.1367 43.5397 30.4487 43.7931 30.8094 43.7914H35.8584C36.219 43.7931 36.5311 43.5398 36.6029 43.1863L36.9356 41.37H36.9361C37.4187 41.1985 37.89 40.9962 38.3465 40.7644L39.8478 41.8058H39.8483C40.1485 42.014 40.5548 41.9755 40.8107 41.715L44.3825 38.1432C44.643 37.8873 44.6814 37.481 44.4733 37.1808L43.4319 35.6732C43.665 35.2188 43.8673 34.7496 44.0374 34.2687L45.8538 33.9359V33.9355C46.2072 33.8637 46.4606 33.5516 46.4589 33.191V28.142C46.4606 27.7814 46.2072 27.4693 45.8538 27.3975L44.0374 27.0647V27.0643C43.8673 26.5833 43.665 26.1141 43.4319 25.6597L44.4733 24.1522C44.6814 23.8519 44.643 23.4457 44.3825 23.1898L40.8107 19.618C40.5548 19.3574 40.1485 19.319 39.8483 19.5272L38.347 20.5686H38.3465C37.89 20.3367 37.4188 20.1345 36.9361 19.963L36.6033 18.1467H36.6029C36.5311 17.7932 36.219 17.5398 35.8584 17.5415H30.8094C30.4487 17.5398 30.1367 17.7932 30.0649 18.1467L29.7321 19.963H29.7317C29.249 20.1344 28.7777 20.3367 28.3212 20.5686L26.8195 19.5272C26.5188 19.3215 26.1142 19.36 25.857 19.618L22.2853 23.1898C22.0247 23.4457 21.9863 23.8519 22.1945 24.1522L23.2359 25.6597C23.0027 26.1141 22.8005 26.5833 22.6303 27.0643L20.8503 27.3975ZM23.3689 28.4752V28.4748C23.6556 28.427 23.8904 28.2205 23.9745 27.9422C24.1738 27.2564 24.4479 26.5947 24.7916 25.9684C24.9297 25.7155 24.9132 25.4063 24.7494 25.1694L23.811 23.8134L26.4931 21.1314L27.8491 22.0697C28.086 22.2336 28.3951 22.25 28.6481 22.1119C29.2739 21.7682 29.9356 21.4941 30.6215 21.2948C30.9002 21.2112 31.1067 20.9764 31.1544 20.6892L31.4509 19.0609H35.2406L35.5371 20.6892H35.5375C35.5852 20.9764 35.7917 21.2112 36.0704 21.2948C36.7562 21.4941 37.418 21.7682 38.0438 22.1119C38.2972 22.25 38.6063 22.2336 38.8432 22.0697L40.1992 21.1314L42.8813 23.8134L41.9307 25.1694C41.7668 25.4063 41.7504 25.7155 41.8885 25.9684C42.2322 26.5947 42.5063 27.2564 42.7056 27.9422C42.7892 28.2205 43.024 28.427 43.3112 28.4748L44.9337 28.7712V32.561L43.3112 32.8574V32.8583C43.024 32.906 42.7892 33.1125 42.7056 33.3908C42.5063 34.0766 42.2322 34.7383 41.8885 35.3646C41.7504 35.6176 41.7668 35.9267 41.9307 36.1636L42.869 37.5196L40.187 40.2017L38.831 39.2633C38.5941 39.0995 38.285 39.083 38.032 39.2211C37.4057 39.5648 36.744 39.8389 36.0582 40.0382C35.7799 40.1218 35.5734 40.3566 35.5256 40.6438L35.2292 42.2721H31.439L31.1426 40.6438H31.1421C31.0944 40.3566 30.8879 40.1218 30.6096 40.0382C29.9238 39.8389 29.2621 39.5648 28.6358 39.2211C28.3828 39.083 28.0737 39.0995 27.8368 39.2633L26.4808 40.2017L23.7987 37.5196L24.7371 36.1636C24.9009 35.9267 24.9174 35.6176 24.7793 35.3646C24.4356 34.7383 24.1615 34.0766 23.9622 33.3908C23.8786 33.1125 23.6438 32.906 23.3566 32.8583L21.7341 32.5618V28.7716L23.3689 28.4752Z" fill="black"/>
<path d="M33.3333 36.8599C34.8667 36.8641 36.3468 36.2974 37.4853 35.27C38.6234 34.2425 39.3384 32.8282 39.4904 31.3021C39.514 31.1027 39.4558 30.9017 39.3295 30.7455C39.2028 30.5892 39.0187 30.4908 38.8181 30.4727C38.6183 30.4524 38.4186 30.5128 38.2628 30.6399C38.1074 30.767 38.0085 30.9507 37.9887 31.1509C37.8531 32.5415 37.1027 33.7987 35.9435 34.5787C34.7842 35.3587 33.3371 35.58 31.9975 35.1817C30.6584 34.7835 29.5668 33.8076 29.0221 32.5209C28.4773 31.2346 28.5356 29.7717 29.1817 28.5326C29.8274 27.2936 30.9934 26.4081 32.3603 26.1179C33.7269 25.8278 35.1521 26.164 36.2455 27.0339C36.5795 27.2932 37.061 27.2324 37.3198 26.8979C37.5791 26.5635 37.5179 26.0825 37.1838 25.8232C35.6138 24.5719 33.5343 24.1593 31.6057 24.7164C29.6766 25.2734 28.1374 26.7307 27.4761 28.6264C26.8147 30.5221 27.1133 32.6209 28.2772 34.2569C29.4411 35.8925 31.3257 36.8629 33.3334 36.8599L33.3333 36.8599Z" fill="black"/>
<path d="M60.5767 15.6526H55.4732C55.4749 13.7653 54.727 11.9545 53.3943 10.6184C52.0616 9.28229 50.2528 8.53018 48.3656 8.52672V3.42326C48.3656 3.22267 48.2857 3.0301 48.1439 2.88821C48.002 2.74632 47.8098 2.6665 47.6088 2.6665H42.5598C42.1443 2.66988 41.809 3.00771 41.809 3.42326V8.52672H36.6025V3.42326C36.6025 3.22267 36.5231 3.0301 36.3812 2.88821C36.2393 2.74632 36.0467 2.6665 35.8457 2.6665H30.8209H30.8213C30.4032 2.6665 30.0645 3.00519 30.0645 3.42326V8.52672H24.858V3.42326C24.858 3.22267 24.7782 3.0301 24.6363 2.88821C24.4944 2.74632 24.3019 2.6665 24.1013 2.6665H19.0764C18.6583 2.6665 18.3197 3.00519 18.3197 3.42326V8.52672C16.4324 8.52504 14.6216 9.27292 13.2855 10.6056C11.9494 11.9384 11.1973 13.7472 11.1938 15.6344H6.09036C5.67228 15.6344 5.3336 15.9731 5.3336 16.3912V21.422C5.33022 21.6247 5.40877 21.8202 5.55108 21.965C5.6934 22.1095 5.88766 22.191 6.09036 22.191H11.1938V27.3975H6.09036C5.67228 27.3975 5.3336 27.7361 5.3336 28.1542V33.1791V33.1787C5.3336 33.5967 5.67228 33.9354 6.09036 33.9354H11.1938V39.1419H6.09036C5.67228 39.1419 5.3336 39.481 5.3336 39.8987V44.9299C5.33698 45.3455 5.67481 45.6803 6.09036 45.6803H11.1938C11.1921 47.5676 11.94 49.3784 13.2727 50.7145C14.6055 52.0506 16.4143 52.8027 18.3015 52.8062V57.9096C18.3015 58.1102 18.3813 58.3028 18.5232 58.4447C18.6651 58.5866 18.8572 58.6664 19.0583 58.6664H24.0891C24.2918 58.6698 24.4873 58.5912 24.6321 58.4489C24.7766 58.3066 24.8581 58.1123 24.8581 57.9096V52.8062H30.0646V57.9096C30.0646 58.1102 30.1439 58.3028 30.2858 58.4447C30.4277 58.5866 30.6203 58.6664 30.8213 58.6664H35.8462H35.8458C36.2638 58.6664 36.6025 58.3277 36.6025 57.9096V52.8062H41.809V57.9096C41.809 58.1102 41.8888 58.3028 42.0307 58.4447C42.1726 58.5866 42.3652 58.6664 42.5658 58.6664H47.597C48.0126 58.663 48.3474 58.3252 48.3474 57.9096V52.8062C50.2347 52.8079 52.0455 52.06 53.3816 50.7273C54.7177 49.3945 55.4698 47.5857 55.4733 45.6985H60.5767C60.7773 45.6985 60.9699 45.6187 61.1118 45.4768C61.2537 45.3349 61.3335 45.1428 61.3335 44.9417V39.8928C61.3301 39.4772 60.9923 39.1419 60.5767 39.1419H55.4733V33.9354H60.5767C60.7773 33.9354 60.9699 33.856 61.1118 33.7141C61.2537 33.5723 61.3335 33.3797 61.3335 33.1787V28.1538V28.1542C61.3335 27.7362 60.9948 27.3975 60.5767 27.3975H55.4733V22.191H60.5767C60.7773 22.191 60.9699 22.1112 61.1118 21.9693C61.2537 21.8274 61.3335 21.6348 61.3335 21.4342V16.4094C61.3335 16.2083 61.2537 16.0162 61.1118 15.8743C60.9699 15.7324 60.7773 15.6526 60.5767 15.6526L60.5767 15.6526ZM11.194 44.1672H6.84727V40.6499H11.194V44.1672ZM11.194 32.4223H6.84727V28.9113H11.194V32.4223ZM11.194 20.6828L6.84727 20.6833V17.166H11.194V20.6828ZM43.3172 4.18013H46.8345V8.52683H43.3172V4.18013ZM31.5778 4.18013H35.0891V8.52683H31.5781L31.5778 4.18013ZM19.8329 4.18013H23.3502V8.52683H19.8333L19.8329 4.18013ZM23.3502 57.1531H19.8333V52.8064H23.3506L23.3502 57.1531ZM35.0897 57.1531H31.5786V52.8064H35.09L35.0897 57.1531ZM46.8345 57.1531H43.3172V52.8064H46.8345V57.1531ZM53.9599 16.4093L53.9604 45.6991C53.957 47.1818 53.3666 48.6028 52.3184 49.6514C51.2699 50.6995 49.8488 51.2899 48.3661 51.2933H18.3023C16.8196 51.29 15.3986 50.6996 14.35 49.6514C13.3018 48.6028 12.7115 47.1818 12.708 45.6991V15.6353C12.7114 14.1526 13.3018 12.7316 14.35 11.6829C15.3985 10.6348 16.8196 10.0445 18.3023 10.041H48.3661C49.8488 10.0444 51.2698 10.6347 52.3184 11.6829C53.3666 12.7315 53.9569 14.1526 53.9604 15.6353L53.9599 16.4093ZM59.8202 40.6256L59.8206 44.167H55.4739V40.6497L59.8202 40.6256ZM59.8202 28.8861V32.3974H55.4739V28.9105L59.8202 28.8861ZM59.8202 20.6585L55.4739 20.6589V17.1657H59.8206L59.8202 20.6585Z" fill="black"/>
</svg>
