<svg width="64" height="64" viewBox="0 0 64 64" fill="none" xmlns="http://www.w3.org/2000/svg">
<path d="M40.7388 15.2704C40.5275 15.2704 40.3157 15.19 40.1571 15.0254L37.5179 12.3423H26.4845L23.844 15.0254C23.5234 15.3512 23.002 15.3512 22.6784 15.0254C22.3578 14.6962 22.3578 14.1692 22.6784 13.8399L25.5591 10.9119C25.7144 10.7541 25.9224 10.6665 26.1438 10.6665H37.8608C38.0788 10.6665 38.2868 10.7541 38.4421 10.9119L41.3228 13.8399C41.6434 14.1657 41.6434 14.6961 41.3228 15.0254C41.1612 15.1866 40.9495 15.2704 40.7381 15.2704H40.7388Z" fill="black"/>
<path d="M42.1616 36.419C41.7389 36.419 41.3785 36.0898 41.3421 35.6535C41.3024 35.1932 41.6364 34.7871 42.0925 34.7466L55.1509 33.5783C56.2181 33.4809 57.0175 32.5911 57.0175 31.5031V20.6499C57.0175 19.5015 56.0993 18.5683 54.9693 18.5683H9.03041C7.9004 18.5683 6.9822 19.5015 6.9822 20.6499V31.5031C6.9822 32.5911 7.78492 33.4809 8.85213 33.5783L21.9105 34.7466C22.3633 34.7871 22.7007 35.1932 22.6575 35.6535C22.6178 36.1137 22.2311 36.4526 21.7653 36.4156L8.70691 35.2473C6.78384 35.0759 5.33325 33.4673 5.33325 31.5066V20.6534C5.33325 18.5816 6.9918 16.896 9.03048 16.896H54.9694C57.0079 16.896 58.6666 18.5815 58.6666 20.6534V31.5066C58.6666 33.4674 57.216 35.0759 55.2929 35.2473L42.2346 36.4156C42.2082 36.419 42.1852 36.419 42.1618 36.419L42.1616 36.419Z" fill="black"/>
<path d="M53.2454 53.3331H10.7564C8.71441 53.3331 7.05298 51.6441 7.05298 49.5689V38.1687C7.05298 37.7051 7.42253 37.3325 7.87495 37.3325C8.33114 37.3325 8.70111 37.7085 8.70111 38.1687V49.5689C8.70111 50.7207 9.62311 51.6578 10.7598 51.6578H53.2488C54.3821 51.6578 55.3075 50.7208 55.3075 49.5689V38.1687C55.3075 37.7051 55.6774 37.3325 56.1336 37.3325C56.5894 37.3325 56.9556 37.7085 56.9556 38.1687V49.5689C56.9489 51.6442 55.2874 53.3331 53.2454 53.3331H53.2454Z" fill="black"/>
<path d="M36.3053 40.6231H27.6875C26.4813 40.6231 25.5037 39.6291 25.5037 38.4037V34.5754C25.5037 33.3533 26.4813 32.356 27.6875 32.356H36.3053C37.5082 32.356 38.4858 33.35 38.4858 34.5754V38.4037C38.4892 39.6291 37.5115 40.6231 36.3053 40.6231V40.6231ZM27.6909 34.0347C27.3967 34.0347 27.1561 34.2802 27.1561 34.5787V38.4067C27.1561 38.7057 27.3967 38.9511 27.6909 38.9511H36.3087C36.603 38.9511 36.8436 38.7057 36.8436 38.4067V34.5787C36.8436 34.2802 36.603 34.0347 36.3087 34.0347H27.6909Z" fill="black"/>
</svg>
