<svg width="64" height="64" viewBox="0 0 64 64" fill="none" xmlns="http://www.w3.org/2000/svg">
<path d="M13.9531 44.01H50.0553C51.9289 44.01 53.4554 42.4752 53.4554 40.5914V17.6193C53.4554 15.7354 51.9289 14.2007 50.0553 14.2007H13.9531C12.0795 14.2007 10.553 15.7354 10.553 17.6193V40.5982C10.553 42.482 12.0795 44.0106 13.9531 44.0106V44.01ZM12.4451 17.6186C12.4451 16.7815 13.1201 16.1029 13.9527 16.1029H50.0548C50.8874 16.1029 51.5624 16.7815 51.5624 17.6186V40.5975C51.5624 41.4346 50.8874 42.1133 50.0548 42.1133L13.9538 42.1137C13.1213 42.1137 12.4462 41.435 12.4462 40.598L12.4451 17.6186Z" fill="black"/>
<path d="M60.3872 45.5696H56.6717C56.9115 45.1064 57.0563 44.5866 57.0563 44.0283L57.0567 14.0851C57.0567 12.2013 55.5302 10.6665 53.6566 10.6665H10.3439C8.47023 10.6665 6.94375 12.2013 6.94375 14.0851V44.0283C6.94375 44.5866 7.08897 45.1064 7.32834 45.5696H3.6128C3.08917 45.5696 2.66675 45.9948 2.66675 46.5208V48.474C2.66675 50.7322 4.49591 52.5713 6.74186 52.5713H57.2583C59.5043 52.5713 61.3334 50.7322 61.3334 48.474V46.5208C61.333 46.001 60.9105 45.5696 60.3869 45.5696H60.3872ZM8.83667 14.0861C8.83667 13.2491 9.51167 12.5704 10.3442 12.5704H53.6625C54.4951 12.5704 55.1701 13.249 55.1701 14.0861V44.0293C55.1701 44.8663 54.4951 45.545 53.6625 45.545L10.3442 45.5455C9.5117 45.5455 8.83667 44.8668 8.83667 44.0297V14.0861ZM59.441 48.4747C59.441 49.686 58.4632 50.6691 57.2584 50.6691H6.742C5.53725 50.6691 4.55947 49.686 4.55947 48.4747V47.4726H59.441V48.4747Z" fill="black"/>
<path d="M23.181 30.5392L24.8716 28.9536V37.256C24.8716 37.7824 25.2944 38.2072 25.8176 38.2072H38.1817C38.7054 38.2072 39.1278 37.782 39.1278 37.256L39.1282 28.9536L40.8188 30.5392C41.0019 30.7104 41.2351 30.7927 41.4621 30.7927C41.7143 30.7927 41.9669 30.6914 42.1561 30.4883C42.5156 30.1017 42.4905 29.5053 42.1121 29.1438L32.6497 20.2646C32.2841 19.9222 31.7226 19.9222 31.3566 20.2646L21.8942 29.1438C21.5096 29.5053 21.4903 30.1017 21.8502 30.4883C22.2031 30.875 22.8024 30.894 23.1808 30.5392L23.181 30.5392ZM30.7384 36.184V31.4271H33.2615V36.184H30.7384ZM32 22.2623L37.2358 27.1775V36.3045H35.1541V30.4757C35.1541 29.9492 34.7312 29.5245 34.208 29.5245H29.7924C29.2688 29.5245 28.8463 29.9496 28.8463 30.4757V36.3045H26.7646L26.7642 27.2921C26.7642 27.254 26.758 27.2222 26.7514 27.1841L32 22.2623Z" fill="black"/>
</svg>
